<svg xmlns="http://www.w3.org/2000/svg" width="24" height="24" viewBox="0 0 24 24" fill="none">
<mask id="mask0_8122_10494" style="mask-type:alpha" maskUnits="userSpaceOnUse" x="0" y="0" width="24" height="24">
<rect width="24" height="24" fill="#D9D9D9"/>
</mask>
<g mask="url(#mask0_8122_10494)">
<path d="M0.974976 6.99998C0.974976 5.33331 1.56248 3.91248 2.73748 2.73748C3.91248 1.56248 5.33331 0.974976 6.99998 0.974976V2.99998C5.89998 2.99998 4.95831 3.39164 4.17498 4.17498C3.39164 4.95831 2.99998 5.89998 2.99998 6.99998H0.974976ZM5.29998 18.725C3.78331 17.2083 3.02498 15.3833 3.02498 13.25C3.02498 11.1166 3.78331 9.29164 5.29998 7.77498L7.04998 5.99998L7.34998 6.29998C7.83331 6.78331 8.07498 7.37081 8.07498 8.06248C8.07498 8.75414 7.83331 9.34164 7.34998 9.82498L6.99998 10.175C6.79998 10.375 6.69998 10.6125 6.69998 10.8875C6.69998 11.1625 6.79998 11.4 6.99998 11.6L7.89998 12.5C8.33331 12.9333 8.54998 13.4583 8.54998 14.075C8.54998 14.6916 8.33331 15.2166 7.89998 15.65L8.97498 16.725C9.70831 15.9916 10.075 15.1125 10.075 14.0875C10.075 13.0625 9.69998 12.175 8.94998 11.425L8.39998 10.875C8.83331 10.4416 9.14164 9.95414 9.32498 9.41248C9.50831 8.87081 9.58331 8.31664 9.54998 7.74998L14.025 3.27498C14.225 3.07498 14.4625 2.97498 14.7375 2.97498C15.0125 2.97498 15.25 3.07498 15.45 3.27498C15.65 3.47498 15.75 3.71248 15.75 3.98748C15.75 4.26248 15.65 4.49998 15.45 4.69998L10.775 9.37498L11.825 10.425L17.85 4.42498C18.05 4.22498 18.2833 4.12498 18.55 4.12498C18.8166 4.12498 19.05 4.22498 19.25 4.42498C19.45 4.62498 19.55 4.85831 19.55 5.12498C19.55 5.39164 19.45 5.62498 19.25 5.82498L13.25 11.85L14.3 12.9L19.6 7.59998C19.8 7.39998 20.0375 7.29998 20.3125 7.29998C20.5875 7.29998 20.825 7.39998 21.025 7.59998C21.225 7.79998 21.325 8.03748 21.325 8.31248C21.325 8.58748 21.225 8.82498 21.025 9.02498L15.725 14.325L16.775 15.375L20.825 11.325C21.025 11.125 21.2625 11.025 21.5375 11.025C21.8125 11.025 22.05 11.125 22.25 11.325C22.45 11.525 22.55 11.7625 22.55 12.0375C22.55 12.3125 22.45 12.55 22.25 12.75L16.25 18.725C14.7333 20.2416 12.9083 21 10.775 21C8.64164 21 6.81664 20.2416 5.29998 18.725ZM17 23.025V21C18.1 21 19.0416 20.6083 19.825 19.825C20.6083 19.0416 21 18.1 21 17H23.025C23.025 18.6666 22.4375 20.0875 21.2625 21.2625C20.0875 22.4375 18.6666 23.025 17 23.025Z" fill="#353535"/>
</g>
</svg>

