<svg xmlns="http://www.w3.org/2000/svg" width="44" height="44" viewBox="0 0 44 44" fill="none" style="&#10;    /* fill: white; */&#10;">
<path d="M0 0H41C42.6569 0 44 1.34315 44 3V41C44 42.6569 42.6569 44 41 44H0V0Z" fill="#006380"/>
<path d="M21.5714 19.8571H23.2857V17.2857H25.8571V15.5714H23.2857V13H21.5714V15.5714H19V17.2857H21.5714M18.1429 27.5714C17.2 27.5714 16.4286 28.3429 16.4286 29.2857C16.4286 30.2286 17.2 31 18.1429 31C19.0857 31 19.8571 30.2286 19.8571 29.2857C19.8571 28.3429 19.0857 27.5714 18.1429 27.5714ZM26.7143 27.5714C25.7714 27.5714 25 28.3429 25 29.2857C25 30.2286 25.7714 31 26.7143 31C27.6571 31 28.4286 30.2286 28.4286 29.2857C28.4286 28.3429 27.6571 27.5714 26.7143 27.5714ZM18.3143 24.8286V24.7429L19.0857 23.2857H25.4286C26.0286 23.2857 26.6286 22.9429 26.8857 22.4286L30.2286 16.4286L28.7714 15.5714L25.4286 21.5714H19.4286L15.8286 13.8571H13V15.5714H14.7143L17.8 22.0857L16.6 24.1429C16.5143 24.4 16.4286 24.6571 16.4286 25C16.4286 25.9429 17.2 26.7143 18.1429 26.7143H28.4286V25H18.4857C18.4 25 18.3143 24.9143 18.3143 24.8286Z" fill="white"/>
</svg>