<svg xmlns="http://www.w3.org/2000/svg" width="35" height="24" viewBox="0 0 35 24" fill="none">
<rect x="1.36145" y="0.5" width="33" height="23" rx="3.5" fill="#1F72CD"/>
<rect x="1.36145" y="0.5" width="33" height="23" rx="3.5" stroke="#F9F7F6"/>
<path fill-rule="evenodd" clip-rule="evenodd" d="M6.95687 8.5L3.77576 15.7467H7.58399L8.0561 14.5913H9.13524L9.60735 15.7467H13.7991V14.8649L14.1727 15.7467H16.341L16.7145 14.8462V15.7467H25.4323L26.4923 14.6213L27.4849 15.7467L31.9626 15.7561L28.7714 12.1436L31.9626 8.5H27.5544L26.5225 9.60463L25.5612 8.5H16.0773L15.263 10.3704L14.4295 8.5H10.6292V9.35186L10.2064 8.5H6.95687ZM7.69374 9.52905H9.55005L11.6601 14.4431V9.52905H13.6936L15.3234 13.0524L16.8254 9.52905H18.8487V14.7291H17.6175L17.6075 10.6544L15.8126 14.7291H14.7112L12.9063 10.6544V14.7291H10.3735L9.89332 13.5633H7.29914L6.81996 14.728H5.46292L7.69374 9.52905ZM24.9813 9.52905H19.9751V14.726H24.9038L26.4923 13.0036L28.0235 14.726H29.6241L27.2977 12.1426L29.6241 9.52905H28.093L26.5124 11.2316L24.9813 9.52905ZM8.59677 10.4089L7.74209 12.4856H9.45046L8.59677 10.4089ZM21.2114 11.555V10.6057V10.6048H24.3351L25.6981 12.1229L24.2747 13.6493H21.2114V12.613H23.9425V11.555H21.2114Z" fill="white"/>
</svg>