<svg xmlns="http://www.w3.org/2000/svg" viewBox="4.86 0 34.19209039548023 24" fill="none" width="34.19209039548023" height="24"> <g filter="url(#filter0_d_17116_620)"> <rect shape-rendering="crispEdges" fill="white" rx="4" height="24" width="34" x="4.86145"/> <rect shape-rendering="crispEdges" stroke="#F9F7F6" rx="3.5" height="23" width="33" y="0.5" x="5.36145"/> <path fill="#ED0006" d="M22.0404 16.8295C20.8564 17.8275 19.3205 18.43 17.6421 18.43C13.8973 18.43 10.8615 15.4303 10.8615 11.73C10.8615 8.02972 13.8973 5.03003 17.6421 5.03003C19.3205 5.03003 20.8564 5.63253 22.0404 6.63057C23.2245 5.63253 24.7604 5.03003 26.4387 5.03003C30.1836 5.03003 33.2194 8.02972 33.2194 11.73C33.2194 15.4303 30.1836 18.43 26.4387 18.43C24.7604 18.43 23.2245 17.8275 22.0404 16.8295Z" clip-rule="evenodd" fill-rule="evenodd"/> <path fill="#F9A000" d="M22.0404 16.8295C23.4983 15.6006 24.4228 13.772 24.4228 11.73C24.4228 9.68807 23.4983 7.85947 22.0404 6.63057C23.2245 5.63253 24.7604 5.03003 26.4387 5.03003C30.1836 5.03003 33.2194 8.02972 33.2194 11.73C33.2194 15.4303 30.1836 18.43 26.4387 18.43C24.7604 18.43 23.2245 17.8275 22.0404 16.8295Z" clip-rule="evenodd" fill-rule="evenodd"/> <path fill="#FF5E00" d="M22.0405 16.8295C23.4984 15.6006 24.4228 13.772 24.4228 11.7301C24.4228 9.68811 23.4984 7.85952 22.0405 6.63062C20.5825 7.85952 19.6581 9.68811 19.6581 11.7301C19.6581 13.772 20.5825 15.6006 22.0405 16.8295Z" clip-rule="evenodd" fill-rule="evenodd"/> </g> </svg>