<svg xmlns="http://www.w3.org/2000/svg" width="35" height="24" viewBox="0 0 35 24" fill="none">
<rect x="1.36145" y="0.5" width="33" height="23" rx="3.5" fill="white"/>
<rect x="1.36145" y="0.5" width="33" height="23" rx="3.5" stroke="#F9F7F6"/>
<path fill-rule="evenodd" clip-rule="evenodd" d="M15.4757 18.4483L15.6964 16.9992L15.2047 16.9873H12.8568L14.4885 6.2937C14.4936 6.26132 14.5101 6.23126 14.5341 6.20987C14.5582 6.18849 14.5889 6.17676 14.6211 6.17676H18.5801C19.8945 6.17676 20.8015 6.45939 21.275 7.01734C21.497 7.27908 21.6384 7.55267 21.7069 7.85364C21.7786 8.16951 21.7798 8.54685 21.7098 9.00715L21.7047 9.04063V9.33561L21.9267 9.46563C22.1137 9.56815 22.2623 9.68546 22.3762 9.81975C22.5661 10.0436 22.6889 10.3281 22.7408 10.6652C22.7945 11.012 22.7768 11.4248 22.6889 11.892C22.5876 12.4295 22.4239 12.8976 22.2027 13.2805C21.9993 13.6334 21.7402 13.9262 21.4325 14.153C21.1387 14.3686 20.7897 14.5322 20.395 14.6369C20.0126 14.7398 19.5766 14.7917 19.0983 14.7917H18.7903C18.57 14.7917 18.356 14.8737 18.188 15.0207C18.0196 15.1708 17.9082 15.3758 17.874 15.6L17.8507 15.7305L17.4607 18.2848L17.4431 18.3785C17.4384 18.4082 17.4303 18.423 17.4185 18.433C17.408 18.4422 17.3928 18.4483 17.3781 18.4483H15.4757Z" fill="#28356A"/>
<path fill-rule="evenodd" clip-rule="evenodd" d="M22.1372 9.07458C22.1255 9.15267 22.1119 9.23246 22.0967 9.31445C21.5746 12.0851 19.7884 13.0422 17.5071 13.0422H16.3456C16.0666 13.0422 15.8314 13.2516 15.788 13.536L15.0249 18.5393C14.9966 18.7261 15.1359 18.8944 15.3182 18.8944H17.3784C17.6223 18.8944 17.8295 18.7112 17.868 18.4626L17.8882 18.3544L18.2761 15.8102L18.301 15.6707C18.339 15.4211 18.5467 15.2378 18.7906 15.2378H19.0987C21.0947 15.2378 22.6572 14.4003 23.1139 11.9765C23.3046 10.964 23.2059 10.1185 22.7011 9.52389C22.5483 9.34464 22.3588 9.1958 22.1372 9.07458Z" fill="#298FC2"/>
<path fill-rule="evenodd" clip-rule="evenodd" d="M21.5908 8.84956C21.511 8.82549 21.4287 8.80374 21.3443 8.78407C21.2594 8.76488 21.1725 8.7479 21.083 8.73299C20.7698 8.68069 20.4266 8.65588 20.059 8.65588H16.956C16.8795 8.65588 16.8069 8.67372 16.742 8.70598C16.5989 8.7771 16.4926 8.91714 16.4668 9.08857L15.8066 13.4101L15.7877 13.5361C15.8311 13.2516 16.0663 13.0423 16.3453 13.0423H17.5068C19.7881 13.0423 21.5743 12.0847 22.0964 9.31451C22.112 9.23252 22.1251 9.15273 22.1368 9.07464C22.0048 9.00218 21.8617 8.94023 21.7077 8.88744C21.6696 8.87437 21.6304 8.86178 21.5908 8.84956Z" fill="#22284F"/>
<path fill-rule="evenodd" clip-rule="evenodd" d="M16.467 9.08862C16.4927 8.91718 16.599 8.77715 16.7422 8.70652C16.8076 8.67414 16.8797 8.6563 16.9562 8.6563H20.0592C20.4268 8.6563 20.77 8.68123 21.0831 8.73353C21.1726 8.74831 21.2595 8.76542 21.3444 8.7846C21.4288 8.80415 21.5111 8.82603 21.5909 8.84998C21.6305 8.8622 21.6698 8.8749 21.7082 8.88749C21.8622 8.94028 22.0054 9.00272 22.1375 9.07469C22.2928 8.05082 22.1362 7.3537 21.6006 6.72245C21.0101 6.0274 19.9444 5.72998 18.5807 5.72998H14.6216C14.3431 5.72998 14.1054 5.9393 14.0624 6.22426L12.4134 17.0279C12.3809 17.2416 12.5404 17.4344 12.7489 17.4344H15.1931L16.467 9.08862Z" fill="#28356A"/>
</svg>