<svg xmlns="http://www.w3.org/2000/svg" width="35" height="24" viewBox="0 0 35 24" fill="none">
<rect x="1.36145" y="0.5" width="33" height="23" rx="3.5" fill="white"/>
<rect x="1.36145" y="0.5" width="33" height="23" rx="3.5" stroke="#F9F7F6"/>
<path fill-rule="evenodd" clip-rule="evenodd" d="M11.6117 15.8582H9.55201L8.00745 9.79235C7.93414 9.51332 7.77848 9.26664 7.54951 9.15038C6.97809 8.85821 6.34841 8.62568 5.6615 8.50841V8.27487H8.97958C9.43752 8.27487 9.78098 8.62568 9.83822 9.0331L10.6396 13.4086L12.6984 8.27487H14.7009L11.6117 15.8582ZM15.8457 15.8582H13.9005L15.5023 8.27487H17.4475L15.8457 15.8582ZM19.9642 10.3757C20.0214 9.96725 20.3649 9.73372 20.7656 9.73372C21.3953 9.67508 22.0812 9.79235 22.6536 10.0835L22.9971 8.45079C22.4246 8.21725 21.795 8.09998 21.2235 8.09998C19.3355 8.09998 17.9617 9.15038 17.9617 10.6082C17.9617 11.7173 18.9348 12.2996 19.6217 12.6504C20.3649 13.0002 20.6511 13.2337 20.5939 13.5835C20.5939 14.1082 20.0214 14.3418 19.45 14.3418C18.7631 14.3418 18.0762 14.1669 17.4475 13.8747L17.1041 15.5084C17.791 15.7996 18.5341 15.9169 19.221 15.9169C21.338 15.9745 22.6536 14.9251 22.6536 13.35C22.6536 11.3664 19.9642 11.2502 19.9642 10.3757ZM29.4615 15.8582L27.9169 8.27487H26.2579C25.9144 8.27487 25.571 8.50841 25.4565 8.85821L22.5964 15.8582H24.5989L24.9986 14.7502H27.459L27.688 15.8582H29.4615ZM26.5441 10.3171L27.1155 13.1751H25.5138L26.5441 10.3171Z" fill="#172B85"/>
</svg>