<svg width="35" height="24" viewBox="0 0 35 24" fill="none" xmlns="http://www.w3.org/2000/svg">
<rect x="1.3614" y="0.5" width="33" height="23" rx="3.5" fill="#1F72CD"/>
<rect x="1.3614" y="0.5" width="33" height="23" rx="3.5" stroke="#F9F7F6"/>
<path fill-rule="evenodd" clip-rule="evenodd" d="M6.95681 8.5L3.7757 15.7467H7.58393L8.05604 14.5913H9.13518L9.60729 15.7467H13.7991V14.8649L14.1726 15.7467H16.3409L16.7144 14.8462V15.7467H25.4322L26.4923 14.6213L27.4849 15.7467L31.9625 15.7561L28.7714 12.1436L31.9625 8.5H27.5543L26.5224 9.60463L25.5611 8.5H16.0773L15.2629 10.3704L14.4294 8.5H10.6291V9.35186L10.2064 8.5H6.95681ZM7.69368 9.52905H9.54999L11.66 14.4431V9.52905H13.6935L15.3233 13.0524L16.8253 9.52905H18.8487V14.7291H17.6175L17.6074 10.6544L15.8125 14.7291H14.7112L12.9062 10.6544V14.7291H10.3734L9.89325 13.5633H7.29908L6.8199 14.728H5.46286L7.69368 9.52905ZM24.9812 9.52905H19.9751V14.726H24.9037L26.4923 13.0036L28.0234 14.726H29.624L27.2976 12.1426L29.624 9.52905H28.0929L26.5124 11.2316L24.9812 9.52905ZM8.59671 10.4089L7.74203 12.4856H9.4504L8.59671 10.4089ZM21.2113 11.555V10.6057V10.6048H24.335L25.698 12.1229L24.2746 13.6493H21.2113V12.613H23.9424V11.555H21.2113Z" fill="white"/>
</svg>
