<svg width="35" height="24" viewBox="0 0 35 24" fill="none" xmlns="http://www.w3.org/2000/svg">
<rect x="1.3614" y="0.5" width="33" height="23" rx="3.5" fill="white"/>
<rect x="1.3614" y="0.5" width="33" height="23" rx="3.5" stroke="#F9F7F6"/>
<path d="M14.8614 23L33.8614 17.25V20C33.8614 21.6569 32.5183 23 30.8614 23H14.8614Z" fill="#FD6020"/>
<path fill-rule="evenodd" clip-rule="evenodd" d="M30.2551 9.11084C31.3004 9.11084 31.8753 9.59438 31.8753 10.5077C31.9276 11.2062 31.4572 11.7972 30.83 11.9046L32.2411 13.8925H31.1436L29.9415 11.9584H29.837V13.8925H28.9485V9.11084H30.2551ZM29.837 11.3137H30.0983C30.6732 11.3137 30.9345 11.045 30.9345 10.5615C30.9345 10.1317 30.6732 9.86304 30.0983 9.86304H29.837V11.3137ZM25.8649 13.8925H28.3736V13.0866H26.7534V11.7972H28.3213V10.9913H26.7534V9.91674H28.3736V9.11084H25.8649V13.8925ZM23.2516 12.3345L22.0495 9.11084H21.1088L23.0426 14H23.5129L25.4467 9.11084H24.506L23.2516 12.3345ZM12.6419 11.5286C12.6419 12.8717 13.6872 14 14.9938 14C15.4119 14 15.7778 13.8925 16.1436 13.7314V12.6568C15.8823 12.9792 15.5164 13.1941 15.0983 13.1941C14.2621 13.1941 13.5826 12.5494 13.5826 11.6897V11.5823C13.5304 10.7227 14.2098 9.97048 15.0461 9.91675C15.4642 9.91675 15.8823 10.1317 16.1436 10.454V9.37948C15.83 9.16458 15.4119 9.11085 15.0461 9.11085C13.6872 9.0034 12.6419 10.1317 12.6419 11.5286ZM11.0217 10.9376C10.499 10.7227 10.3422 10.6152 10.3422 10.3466C10.3945 10.0242 10.6558 9.75557 10.9694 9.8093C11.2307 9.8093 11.4921 9.97048 11.7011 10.1854L12.1715 9.54066C11.8056 9.2183 11.3353 9.00339 10.8649 9.00339C10.1332 8.94967 9.50599 9.54066 9.45373 10.2928V10.3466C9.45373 10.9913 9.71505 11.3674 10.5513 11.636C10.7603 11.6897 10.9694 11.7972 11.1785 11.9046C11.3353 12.0121 11.4398 12.1733 11.4398 12.3882C11.4398 12.7643 11.1262 13.0866 10.8126 13.0866H10.7603C10.3422 13.0866 9.97637 12.818 9.81958 12.4419L9.24467 13.0329C9.55826 13.6239 10.1854 13.9463 10.8126 13.9463C11.6488 14 12.3283 13.3553 12.3806 12.4956V12.3345C12.3283 11.6897 12.067 11.3674 11.0217 10.9376ZM7.99032 13.8925H8.87882V9.11084H7.99032V13.8925ZM3.8614 9.11086H5.16802H5.42935C6.6837 9.16458 7.67673 10.2391 7.62446 11.5286C7.62446 12.227 7.31088 12.8717 6.78823 13.3553C6.31785 13.7314 5.74293 13.9463 5.16802 13.8926H3.8614V9.11086ZM5.01123 13.0866C5.42935 13.1404 5.89973 12.9792 6.21332 12.7105C6.52691 12.3882 6.6837 11.9584 6.6837 11.4748C6.6837 11.045 6.52691 10.6152 6.21332 10.2928C5.89973 10.0242 5.42935 9.86302 5.01123 9.91674H4.74991V13.0866H5.01123Z" fill="#353535"/>
<path fill-rule="evenodd" clip-rule="evenodd" d="M18.8091 9C17.5025 9 16.4049 10.0745 16.4049 11.4714C16.4049 12.8146 17.4502 13.9429 18.8091 13.9966C20.168 14.0503 21.2133 12.9221 21.2656 11.5252C21.2133 10.1283 20.168 9 18.8091 9V9Z" fill="#FD6020"/>
</svg>
