<svg width="35" height="24" viewBox="0 0 35 24" fill="none" xmlns="http://www.w3.org/2000/svg">
<rect x="1.3614" y="0.5" width="33" height="23" rx="3.5" fill="white"/>
<rect x="1.3614" y="0.5" width="33" height="23" rx="3.5" stroke="#F9F7F6"/>
<path fill-rule="evenodd" clip-rule="evenodd" d="M18.0404 16.8292C16.8563 17.8273 15.3204 18.4298 13.6421 18.4298C9.89722 18.4298 6.8614 15.4301 6.8614 11.7298C6.8614 8.02948 9.89722 5.02979 13.6421 5.02979C15.3204 5.02979 16.8563 5.63228 18.0404 6.63033C19.2244 5.63228 20.7603 5.02979 22.4387 5.02979C26.1835 5.02979 29.2194 8.02948 29.2194 11.7298C29.2194 15.4301 26.1835 18.4298 22.4387 18.4298C20.7603 18.4298 19.2244 17.8273 18.0404 16.8292Z" fill="#ED0006"/>
<path fill-rule="evenodd" clip-rule="evenodd" d="M18.0404 16.8292C19.4983 15.6003 20.4228 13.7717 20.4228 11.7298C20.4228 9.68783 19.4983 7.85923 18.0404 6.63032C19.2244 5.63228 20.7603 5.02979 22.4387 5.02979C26.1835 5.02979 29.2193 8.02948 29.2193 11.7298C29.2193 15.4301 26.1835 18.4298 22.4387 18.4298C20.7603 18.4298 19.2244 17.8273 18.0404 16.8292Z" fill="#F9A000"/>
<path fill-rule="evenodd" clip-rule="evenodd" d="M18.0404 16.8292C19.4983 15.6003 20.4228 13.7717 20.4228 11.7298C20.4228 9.68787 19.4983 7.85927 18.0404 6.63037C16.5825 7.85927 15.658 9.68787 15.658 11.7298C15.658 13.7717 16.5825 15.6003 18.0404 16.8292Z" fill="#FF5E00"/>
</svg>
