<svg width="35" height="24" viewBox="0 0 35 24" fill="none" xmlns="http://www.w3.org/2000/svg">
<rect x="1.3614" y="0.5" width="33" height="23" rx="3.5" fill="white"/>
<rect x="1.3614" y="0.5" width="33" height="23" rx="3.5" stroke="#F9F7F6"/>
<path fill-rule="evenodd" clip-rule="evenodd" d="M15.4756 18.4483L15.6963 16.9992L15.2046 16.9873H12.8567L14.4884 6.2937C14.4935 6.26132 14.5099 6.23126 14.5339 6.20987C14.5581 6.18849 14.5888 6.17676 14.621 6.17676H18.5799C19.8944 6.17676 20.8014 6.45939 21.2749 7.01734C21.4969 7.27908 21.6383 7.55267 21.7067 7.85364C21.7785 8.16951 21.7797 8.54685 21.7097 9.00715L21.7046 9.04063V9.33561L21.9266 9.46563C22.1135 9.56815 22.2622 9.68546 22.3761 9.81975C22.566 10.0436 22.6888 10.3281 22.7407 10.6652C22.7944 11.012 22.7767 11.4248 22.6888 11.892C22.5875 12.4295 22.4238 12.8976 22.2026 13.2805C21.9992 13.6334 21.7401 13.9262 21.4323 14.153C21.1386 14.3686 20.7896 14.5322 20.3949 14.6369C20.0125 14.7398 19.5765 14.7917 19.0982 14.7917H18.7901C18.5699 14.7917 18.3559 14.8737 18.1879 15.0207C18.0194 15.1708 17.9081 15.3758 17.8739 15.6L17.8506 15.7305L17.4606 18.2848L17.443 18.3785C17.4382 18.4082 17.4302 18.423 17.4184 18.433C17.4079 18.4422 17.3927 18.4483 17.378 18.4483H15.4756Z" fill="#28356A"/>
<path fill-rule="evenodd" clip-rule="evenodd" d="M22.1371 9.07471C22.1254 9.15279 22.1118 9.23258 22.0966 9.31458C21.5745 12.0852 19.7883 13.0424 17.507 13.0424H16.3455C16.0665 13.0424 15.8313 13.2517 15.7879 13.5362L15.0248 18.5394C14.9965 18.7263 15.1358 18.8945 15.3181 18.8945H17.3783C17.6222 18.8945 17.8294 18.7113 17.8679 18.4627L17.8881 18.3545L18.276 15.8103L18.3009 15.6708C18.3389 15.4213 18.5466 15.238 18.7905 15.238H19.0986C21.0946 15.238 22.6571 14.4004 23.1138 11.9766C23.3045 10.9641 23.2058 10.1186 22.701 9.52402C22.5482 9.34476 22.3587 9.19592 22.1371 9.07471Z" fill="#298FC2"/>
<path fill-rule="evenodd" clip-rule="evenodd" d="M21.5907 8.84944C21.5109 8.82537 21.4286 8.80362 21.3442 8.78394C21.2593 8.76476 21.1724 8.74777 21.0829 8.73287C20.7697 8.68057 20.4265 8.65576 20.0589 8.65576H16.9559C16.8794 8.65576 16.8068 8.6736 16.7419 8.70586C16.5988 8.77698 16.4925 8.91701 16.4667 9.08845L15.8065 13.41L15.7876 13.536C15.831 13.2515 16.0661 13.0422 16.3452 13.0422H17.5067C19.788 13.0422 21.5742 12.0845 22.0963 9.31439C22.1119 9.2324 22.125 9.15261 22.1367 9.07452C22.0047 9.00206 21.8616 8.94011 21.7076 8.88732C21.6695 8.87425 21.6303 8.86166 21.5907 8.84944Z" fill="#22284F"/>
<path fill-rule="evenodd" clip-rule="evenodd" d="M16.4669 9.08862C16.4926 8.91718 16.5989 8.77715 16.7421 8.70652C16.8075 8.67414 16.8796 8.6563 16.9561 8.6563H20.0591C20.4267 8.6563 20.7699 8.68123 21.0831 8.73353C21.1726 8.74831 21.2594 8.76542 21.3443 8.7846C21.4287 8.80415 21.511 8.82603 21.5908 8.84998C21.6304 8.8622 21.6697 8.8749 21.7081 8.88749C21.8622 8.94028 22.0053 9.00272 22.1374 9.07469C22.2927 8.05082 22.1361 7.3537 21.6005 6.72245C21.01 6.0274 19.9443 5.72998 18.5806 5.72998H14.6215C14.343 5.72998 14.1053 5.9393 14.0623 6.22426L12.4133 17.0279C12.3808 17.2416 12.5403 17.4344 12.7488 17.4344H15.193L16.4669 9.08862Z" fill="#28356A"/>
</svg>
