<svg width="35" height="24" viewBox="0 0 35 24" fill="none" xmlns="http://www.w3.org/2000/svg">
<rect x="1.3614" y="0.5" width="33" height="23" rx="3.5" fill="white"/>
<rect x="1.3614" y="0.5" width="33" height="23" rx="3.5" stroke="#F9F7F6"/>
<path fill-rule="evenodd" clip-rule="evenodd" d="M11.6117 15.8583H9.55192L8.00736 9.79247C7.93405 9.51344 7.77839 9.26676 7.54942 9.1505C6.97799 8.85833 6.34832 8.6258 5.66141 8.50853V8.27499H8.97949C9.43743 8.27499 9.78089 8.6258 9.83813 9.03323L10.6395 13.4087L12.6983 8.27499H14.7008L11.6117 15.8583ZM15.8456 15.8583H13.9004L15.5022 8.27499H17.4474L15.8456 15.8583ZM19.9641 10.3758C20.0214 9.96738 20.3648 9.73384 20.7655 9.73384C21.3952 9.6752 22.0811 9.79248 22.6535 10.0836L22.997 8.45091C22.4246 8.21737 21.7949 8.1001 21.2235 8.1001C19.3354 8.1001 17.9616 9.1505 17.9616 10.6083C17.9616 11.7174 18.9347 12.2997 19.6217 12.6505C20.3648 13.0003 20.651 13.2338 20.5938 13.5836C20.5938 14.1083 20.0214 14.3419 19.4499 14.3419C18.763 14.3419 18.0761 14.167 17.4474 13.8748L17.104 15.5086C17.7909 15.7997 18.534 15.917 19.221 15.917C21.3379 15.9746 22.6535 14.9252 22.6535 13.3501C22.6535 11.3666 19.9641 11.2503 19.9641 10.3758ZM29.4614 15.8583L27.9169 8.27499H26.2578C25.9144 8.27499 25.5709 8.50853 25.4564 8.85833L22.5963 15.8583H24.5988L24.9985 14.7503H27.4589L27.6879 15.8583H29.4614ZM26.544 10.3172L27.1155 13.1752H25.5137L26.544 10.3172Z" fill="#172B85"/>
</svg>
