<svg xmlns="http://www.w3.org/2000/svg" width="26" height="23" viewBox="0 0 26 23" fill="none">
<path d="M13.125 19.4375L13 19.5625L12.8625 19.4375C6.925 14.05 3 10.4875 3 6.875C3 4.375 4.875 2.5 7.375 2.5C9.3 2.5 11.175 3.75 11.8375 5.45H14.1625C14.825 3.75 16.7 2.5 18.625 2.5C21.125 2.5 23 4.375 23 6.875C23 10.4875 19.075 14.05 13.125 19.4375ZM18.625 0C16.45 0 14.3625 1.0125 13 2.6C11.6375 1.0125 9.55 0 7.375 0C3.525 0 0.5 3.0125 0.5 6.875C0.5 11.5875 4.75 15.45 11.1875 21.2875L13 22.9375L14.8125 21.2875C21.25 15.45 25.5 11.5875 25.5 6.875C25.5 3.0125 22.475 0 18.625 0Z" fill="#B4B4B5"/>
</svg>