<svg xmlns="http://www.w3.org/2000/svg" width="16" height="22" viewBox="0 0 16 22" fill="none">
<path d="M2 22C1.45 22 0.979167 21.8042 0.5875 21.4125C0.195833 21.0208 0 20.55 0 20V9C0 8.45 0.195833 7.97917 0.5875 7.5875C0.979167 7.19583 1.45 7 2 7H5V9H2V20H14V9H11V7H14C14.55 7 15.0208 7.19583 15.4125 7.5875C15.8042 7.97917 16 8.45 16 9V20C16 20.55 15.8042 21.0208 15.4125 21.4125C15.0208 21.8042 14.55 22 14 22H2ZM7 15V3.825L5.4 5.425L4 4L8 0L12 4L10.6 5.425L9 3.825V15H7Z" fill="#008BB7"/>
</svg>