<svg xmlns="http://www.w3.org/2000/svg" width="14" height="14" viewBox="0 0 14 14" fill="none">
<path d="M2.75333 1.55556C2.8 2.24778 2.91667 2.92444 3.10333 3.57L2.17 4.50333C1.85111 3.57 1.64889 2.58222 1.57889 1.55556H2.75333ZM10.4222 10.9044C11.0833 11.0911 11.76 11.2078 12.4444 11.2544V12.4133C11.4178 12.3433 10.43 12.1411 9.48889 11.83L10.4222 10.9044ZM3.5 0H0.777778C0.35 0 0 0.35 0 0.777778C0 8.08111 5.91889 14 13.2222 14C13.65 14 14 13.65 14 13.2222V10.5078C14 10.08 13.65 9.73 13.2222 9.73C12.2578 9.73 11.3167 9.57444 10.4456 9.28667C10.3678 9.25556 10.2822 9.24778 10.2044 9.24778C10.0022 9.24778 9.80778 9.32556 9.65222 9.47333L7.94111 11.1844C5.74 10.0567 3.93556 8.26 2.81556 6.05889L4.52667 4.34778C4.74444 4.13 4.80667 3.82667 4.72111 3.55444C4.43333 2.68333 4.27778 1.75 4.27778 0.777778C4.27778 0.35 3.92778 0 3.5 0Z" fill="#353535"/>
</svg>