<svg xmlns="http://www.w3.org/2000/svg" width="24" height="24" viewBox="0 0 24 24" fill="none">
<path d="M0.974976 7.0001C0.974976 5.33343 1.56248 3.9126 2.73748 2.7376C3.91248 1.5626 5.33331 0.975098 6.99998 0.975098V3.0001C5.89998 3.0001 4.95831 3.39176 4.17498 4.1751C3.39164 4.95843 2.99998 5.9001 2.99998 7.0001H0.974976ZM5.29998 18.7251C3.78331 17.2084 3.02498 15.3834 3.02498 13.2501C3.02498 11.1168 3.78331 9.29176 5.29998 7.7751L7.04998 6.0001L7.34998 6.3001C7.83331 6.78343 8.07498 7.37093 8.07498 8.0626C8.07498 8.75426 7.83331 9.34176 7.34998 9.8251L6.99998 10.1751C6.79998 10.3751 6.69998 10.6126 6.69998 10.8876C6.69998 11.1626 6.79998 11.4001 6.99998 11.6001L7.89998 12.5001C8.33331 12.9334 8.54998 13.4584 8.54998 14.0751C8.54998 14.6918 8.33331 15.2168 7.89998 15.6501L8.97498 16.7251C9.70831 15.9918 10.075 15.1126 10.075 14.0876C10.075 13.0626 9.69998 12.1751 8.94998 11.4251L8.39998 10.8751C8.83331 10.4418 9.14164 9.95426 9.32498 9.4126C9.50831 8.87093 9.58331 8.31676 9.54998 7.7501L14.025 3.2751C14.225 3.0751 14.4625 2.9751 14.7375 2.9751C15.0125 2.9751 15.25 3.0751 15.45 3.2751C15.65 3.4751 15.75 3.7126 15.75 3.9876C15.75 4.2626 15.65 4.5001 15.45 4.7001L10.775 9.3751L11.825 10.4251L17.85 4.4251C18.05 4.2251 18.2833 4.1251 18.55 4.1251C18.8166 4.1251 19.05 4.2251 19.25 4.4251C19.45 4.6251 19.55 4.85843 19.55 5.1251C19.55 5.39176 19.45 5.6251 19.25 5.8251L13.25 11.8501L14.3 12.9001L19.6 7.6001C19.8 7.4001 20.0375 7.3001 20.3125 7.3001C20.5875 7.3001 20.825 7.4001 21.025 7.6001C21.225 7.8001 21.325 8.0376 21.325 8.3126C21.325 8.5876 21.225 8.8251 21.025 9.0251L15.725 14.3251L16.775 15.3751L20.825 11.3251C21.025 11.1251 21.2625 11.0251 21.5375 11.0251C21.8125 11.0251 22.05 11.1251 22.25 11.3251C22.45 11.5251 22.55 11.7626 22.55 12.0376C22.55 12.3126 22.45 12.5501 22.25 12.7501L16.25 18.7251C14.7333 20.2418 12.9083 21.0001 10.775 21.0001C8.64164 21.0001 6.81664 20.2418 5.29998 18.7251ZM17 23.0251V21.0001C18.1 21.0001 19.0416 20.6084 19.825 19.8251C20.6083 19.0418 21 18.1001 21 17.0001H23.025C23.025 18.6668 22.4375 20.0876 21.2625 21.2626C20.0875 22.4376 18.6666 23.0251 17 23.0251Z" fill="#006380"/>
</svg>