<svg xmlns="http://www.w3.org/2000/svg" width="70" height="70" viewBox="0 0 70 70" fill="none">
<circle cx="35" cy="35" r="35" fill="white"/>
<path d="M35 35.2083C36.4323 35.2083 37.6584 34.6983 38.6784 33.6784C39.6984 32.6584 40.2083 31.4323 40.2083 30C40.2083 28.5677 39.6984 27.3416 38.6784 26.3216C37.6584 25.3016 36.4323 24.7917 35 24.7917C33.5677 24.7917 32.3416 25.3016 31.3216 26.3216C30.3017 27.3416 29.7917 28.5677 29.7917 30C29.7917 31.4323 30.3017 32.6584 31.3216 33.6784C32.3416 34.6983 33.5677 35.2083 35 35.2083ZM35 54.3489C40.2951 49.4878 44.2231 45.0716 46.7839 41.1002C49.3446 37.1289 50.625 33.6024 50.625 30.5208C50.625 25.7899 49.1168 21.9162 46.1003 18.8997C43.0838 15.8832 39.3837 14.375 35 14.375C30.6163 14.375 26.9162 15.8832 23.8997 18.8997C20.8833 21.9162 19.375 25.7899 19.375 30.5208C19.375 33.6024 20.6554 37.1289 23.2162 41.1002C25.7769 45.0716 29.7049 49.4878 35 54.3489ZM35 61.25C28.0122 55.3038 22.793 49.7808 19.3425 44.681C15.8919 39.5812 14.1667 34.8611 14.1667 30.5208C14.1667 24.0104 16.2609 18.8238 20.4492 14.9609C24.6376 11.0981 29.4879 9.16666 35 9.16666C40.5122 9.16666 45.3624 11.0981 49.5508 14.9609C53.7392 18.8238 55.8333 24.0104 55.8333 30.5208C55.8333 34.8611 54.1081 39.5812 50.6576 44.681C47.207 49.7808 41.9879 55.3038 35 61.25Z" fill="#4EAECC"/>
</svg>