<svg xmlns="http://www.w3.org/2000/svg" width="20" height="24" viewBox="0 0 20 24" fill="none">
<path d="M19.2808 18.4328C18.933 19.2363 18.5213 19.976 18.0442 20.656C17.394 21.5831 16.8616 22.2248 16.4513 22.5812C15.8153 23.1661 15.1338 23.4656 14.4041 23.4827C13.8802 23.4827 13.2485 23.3336 12.513 23.0312C11.7752 22.7302 11.0972 22.5812 10.4772 22.5812C9.82695 22.5812 9.12959 22.7302 8.38368 23.0312C7.63662 23.3336 7.03481 23.4912 6.57468 23.5068C5.87491 23.5366 5.1774 23.2285 4.48118 22.5812C4.03681 22.1936 3.48099 21.5291 2.81515 20.5879C2.10075 19.5827 1.51342 18.4171 1.05329 17.0883C0.560506 15.653 0.313477 14.2631 0.313477 12.9175C0.313477 11.3761 0.646541 10.0467 1.31366 8.93263C1.83796 8.03779 2.53546 7.33191 3.40844 6.81372C4.28142 6.29553 5.22468 6.03146 6.24048 6.01456C6.7963 6.01456 7.52518 6.18649 8.43095 6.52438C9.33417 6.86341 9.91412 7.03534 10.1684 7.03534C10.3585 7.03534 11.0028 6.8343 12.0949 6.43352C13.1278 6.06184 13.9995 5.90795 14.7136 5.96857C16.6487 6.12473 18.1024 6.88754 19.0693 8.26182C17.3386 9.31042 16.4826 10.7791 16.4996 12.6632C16.5152 14.1308 17.0476 15.352 18.0939 16.3217C18.5681 16.7717 19.0977 17.1195 19.6868 17.3666C19.5591 17.7371 19.4242 18.092 19.2808 18.4328ZM14.8428 0.96892C14.8428 2.11918 14.4226 3.19318 13.5849 4.18726C12.5741 5.36902 11.3514 6.0519 10.0256 5.94415C10.0087 5.80615 9.99888 5.66092 9.99888 5.5083C9.99888 4.40405 10.4796 3.22228 11.3333 2.25603C11.7595 1.7668 12.3015 1.36001 12.9588 1.0355C13.6147 0.715842 14.2352 0.539062 14.8187 0.508789C14.8357 0.662561 14.8428 0.816358 14.8428 0.96892Z" fill="#353535"/>
</svg>