<svg xmlns="http://www.w3.org/2000/svg" width="70" height="70" viewBox="0 0 70 70" fill="none">
<circle cx="35" cy="35" r="35" fill="white"/>
<path d="M15 56C13.625 56 12.4479 55.5104 11.4688 54.5312C10.4896 53.5521 10 52.375 10 51V23.5C10 22.125 10.4896 20.9479 11.4688 19.9688C12.4479 18.9896 13.625 18.5 15 18.5H27.5V11C27.5 9.625 27.9896 8.44792 28.9688 7.46875C29.9479 6.48958 31.125 6 32.5 6H37.5C38.875 6 40.0521 6.48958 41.0312 7.46875C42.0104 8.44792 42.5 9.625 42.5 11V18.5H55C56.375 18.5 57.5521 18.9896 58.5312 19.9688C59.5104 20.9479 60 22.125 60 23.5V51C60 52.375 59.5104 53.5521 58.5312 54.5312C57.5521 55.5104 56.375 56 55 56H15ZM15 51H55V23.5H42.5C42.5 24.875 42.0104 26.0521 41.0312 27.0312C40.0521 28.0104 38.875 28.5 37.5 28.5H32.5C31.125 28.5 29.9479 28.0104 28.9688 27.0312C27.9896 26.0521 27.5 24.875 27.5 23.5H15V51ZM20 46H35V44.875C35 44.1667 34.8021 43.5104 34.4062 42.9062C34.0104 42.3021 33.4583 41.8333 32.75 41.5C31.9167 41.125 31.0729 40.8438 30.2188 40.6562C29.3646 40.4688 28.4583 40.375 27.5 40.375C26.5417 40.375 25.6354 40.4688 24.7812 40.6562C23.9271 40.8438 23.0833 41.125 22.25 41.5C21.5417 41.8333 20.9896 42.3021 20.5938 42.9062C20.1979 43.5104 20 44.1667 20 44.875V46ZM40 42.25H50V38.5H40V42.25ZM27.5 38.5C28.5417 38.5 29.4271 38.1354 30.1562 37.4062C30.8854 36.6771 31.25 35.7917 31.25 34.75C31.25 33.7083 30.8854 32.8229 30.1562 32.0938C29.4271 31.3646 28.5417 31 27.5 31C26.4583 31 25.5729 31.3646 24.8438 32.0938C24.1146 32.8229 23.75 33.7083 23.75 34.75C23.75 35.7917 24.1146 36.6771 24.8438 37.4062C25.5729 38.1354 26.4583 38.5 27.5 38.5ZM40 34.75H50V31H40V34.75ZM32.5 23.5H37.5V11H32.5V23.5Z" fill="#4EAECC"/>
</svg>