<svg xmlns="http://www.w3.org/2000/svg" width="70" height="70" viewBox="0 0 70 70" fill="none">
<circle cx="35" cy="35" r="35" fill="white"/>
<path d="M18.3334 51.6667C17.1875 51.6667 16.2066 51.2587 15.3906 50.4427C14.5747 49.6267 14.1667 48.6458 14.1667 47.5V22.5C14.1667 21.3542 14.5747 20.3733 15.3906 19.5573C16.2066 18.7413 17.1875 18.3333 18.3334 18.3333H51.6667C52.8125 18.3333 53.7934 18.7413 54.6094 19.5573C55.4254 20.3733 55.8334 21.3542 55.8334 22.5V47.5C55.8334 48.6458 55.4254 49.6267 54.6094 50.4427C53.7934 51.2587 52.8125 51.6667 51.6667 51.6667H18.3334ZM35 37.0833L18.3334 26.6667V47.5H51.6667V26.6667L35 37.0833ZM35 32.9167L51.6667 22.5H18.3334L35 32.9167ZM18.3334 26.6667V22.5V47.5V26.6667Z" fill="#4EAECC"/>
</svg>