<svg xmlns="http://www.w3.org/2000/svg" width="70" height="70" viewBox="0 0 70 70" fill="none">
<circle cx="35" cy="35" r="35" fill="white"/>
<path d="M35 56.2709L31.9792 53.5625C28.4722 50.4028 25.5729 47.6771 23.2813 45.3854C20.9896 43.0938 19.1667 41.0365 17.8125 39.2136C16.4583 37.3906 15.5122 35.7153 14.974 34.1875C14.4358 32.6597 14.1667 31.0972 14.1667 29.5C14.1667 26.2361 15.2604 23.5104 17.4479 21.3229C19.6354 19.1354 22.3611 18.0417 25.625 18.0417C27.4306 18.0417 29.1493 18.4236 30.7813 19.1875C32.4132 19.9514 33.8195 21.0278 35 22.4167C36.1806 21.0278 37.5868 19.9514 39.2188 19.1875C40.8507 18.4236 42.5695 18.0417 44.375 18.0417C47.6389 18.0417 50.3646 19.1354 52.5521 21.3229C54.7396 23.5104 55.8333 26.2361 55.8333 29.5C55.8333 31.0972 55.5642 32.6597 55.0261 34.1875C54.4879 35.7153 53.5417 37.3906 52.1875 39.2136C50.8333 41.0365 49.0104 43.0938 46.7188 45.3854C44.4271 47.6771 41.5278 50.4028 38.0208 53.5625L35 56.2709ZM35 50.6459C38.3333 47.6597 41.0764 45.099 43.2292 42.9636C45.382 40.8281 47.0833 38.9705 48.3333 37.3906C49.5833 35.8108 50.4514 34.4045 50.9375 33.1719C51.4236 31.9393 51.6667 30.7153 51.6667 29.5C51.6667 27.4167 50.9722 25.6806 49.5833 24.2917C48.1945 22.9028 46.4583 22.2084 44.375 22.2084C42.7431 22.2084 41.2326 22.6684 39.8438 23.5886C38.4549 24.5087 37.5 25.6806 36.9792 27.1042H33.0208C32.5 25.6806 31.5451 24.5087 30.1563 23.5886C28.7674 22.6684 27.257 22.2084 25.625 22.2084C23.5417 22.2084 21.8056 22.9028 20.4167 24.2917C19.0278 25.6806 18.3333 27.4167 18.3333 29.5C18.3333 30.7153 18.5764 31.9393 19.0625 33.1719C19.5486 34.4045 20.4167 35.8108 21.6667 37.3906C22.9167 38.9705 24.6181 40.8281 26.7708 42.9636C28.9236 45.099 31.6667 47.6597 35 50.6459Z" fill="#4EAECC"/>
</svg>