<svg xmlns="http://www.w3.org/2000/svg" width="84" height="84" viewBox="0 0 84 84" fill="none">
<circle cx="42" cy="42" r="42" fill="white"/>
<path d="M39.2222 62.79V43.61L22.5556 33.88V53.06L39.2222 62.79ZM44.7778 62.79L61.4444 53.06V33.88L44.7778 43.61V62.79ZM39.2222 69.23L19.7778 57.96C18.8981 57.4467 18.2153 56.77 17.7292 55.93C17.2431 55.09 17 54.1567 17 53.13V30.87C17 29.8433 17.2431 28.91 17.7292 28.07C18.2153 27.23 18.8981 26.5533 19.7778 26.04L39.2222 14.77C40.1019 14.2567 41.0278 14 42 14C42.9722 14 43.8981 14.2567 44.7778 14.77L64.2222 26.04C65.1018 26.5533 65.7847 27.23 66.2708 28.07C66.7569 28.91 67 29.8433 67 30.87V53.13C67 54.1567 66.7569 55.09 66.2708 55.93C65.7847 56.77 65.1018 57.4467 64.2222 57.96L44.7778 69.23C43.8981 69.7433 42.9722 70 42 70C41.0278 70 40.1019 69.7433 39.2222 69.23ZM53.1111 32.27L58.4583 29.19L42 19.6L36.5833 22.75L53.1111 32.27ZM42 38.78L47.4167 35.63L30.9583 26.04L25.5417 29.19L42 38.78Z" fill="#4EAECC"/>
</svg>