<svg width="17" height="16" viewBox="0 0 17 16" fill="none" xmlns="http://www.w3.org/2000/svg">
<path d="M8.5 8C7.4 8 6.45833 7.60833 5.675 6.825C4.89167 6.04167 4.5 5.1 4.5 4C4.5 2.9 4.89167 1.95833 5.675 1.175C6.45833 0.391667 7.4 0 8.5 0C9.6 0 10.5417 0.391667 11.325 1.175C12.1083 1.95833 12.5 2.9 12.5 4C12.5 5.1 12.1083 6.04167 11.325 6.825C10.5417 7.60833 9.6 8 8.5 8ZM0.5 16V13.2C0.5 12.6333 0.645833 12.1125 0.9375 11.6375C1.22917 11.1625 1.61667 10.8 2.1 10.55C3.13333 10.0333 4.18333 9.64583 5.25 9.3875C6.31667 9.12917 7.4 9 8.5 9C9.6 9 10.6833 9.12917 11.75 9.3875C12.8167 9.64583 13.8667 10.0333 14.9 10.55C15.3833 10.8 15.7708 11.1625 16.0625 11.6375C16.3542 12.1125 16.5 12.6333 16.5 13.2V16H0.5ZM2.5 14H14.5V13.2C14.5 13.0167 14.4542 12.85 14.3625 12.7C14.2708 12.55 14.15 12.4333 14 12.35C13.1 11.9 12.1917 11.5625 11.275 11.3375C10.3583 11.1125 9.43333 11 8.5 11C7.56667 11 6.64167 11.1125 5.725 11.3375C4.80833 11.5625 3.9 11.9 3 12.35C2.85 12.4333 2.72917 12.55 2.6375 12.7C2.54583 12.85 2.5 13.0167 2.5 13.2V14ZM8.5 6C9.05 6 9.52083 5.80417 9.9125 5.4125C10.3042 5.02083 10.5 4.55 10.5 4C10.5 3.45 10.3042 2.97917 9.9125 2.5875C9.52083 2.19583 9.05 2 8.5 2C7.95 2 7.47917 2.19583 7.0875 2.5875C6.69583 2.97917 6.5 3.45 6.5 4C6.5 4.55 6.69583 5.02083 7.0875 5.4125C7.47917 5.80417 7.95 6 8.5 6Z" fill="#03465C"/>
</svg>
