<svg width="70" height="70" viewBox="0 0 70 70" fill="none" xmlns="http://www.w3.org/2000/svg">
<circle cx="35" cy="35" r="35" fill="white"/>
<path d="M32.2306 53.2744H37.4394V50.67H40.0437C40.7817 50.67 41.4002 50.4204 41.8994 49.9212C42.3985 49.4221 42.6481 48.8035 42.6481 48.0656V40.2525C42.6481 39.5146 42.3985 38.8961 41.8994 38.3969C41.4002 37.8977 40.7817 37.6481 40.0437 37.6481H32.2306V35.0438H42.6481V29.835H37.4394V27.2306H32.2306V29.835H29.6262C28.8883 29.835 28.2698 30.0846 27.7706 30.5838C27.2715 31.0829 27.0219 31.7015 27.0219 32.4394V40.2525C27.0219 40.9904 27.2715 41.6089 27.7706 42.1081C28.2698 42.6073 28.8883 42.8569 29.6262 42.8569H37.4394V45.4613H27.0219V50.67H32.2306V53.2744ZM19.2087 61.0875C17.7763 61.0875 16.5501 60.5775 15.5301 59.5574C14.51 58.5374 14 57.3112 14 55.8788V14.2088C14 12.7763 14.51 11.5501 15.5301 10.5301C16.5501 9.51002 17.7763 9 19.2087 9H40.0437L55.67 24.6263V55.8788C55.67 57.3112 55.16 58.5374 54.1399 59.5574C53.1199 60.5775 51.8937 61.0875 50.4613 61.0875H19.2087ZM37.4394 24.6263V14.2088H19.2087V55.8788H50.4613V24.6263H37.4394Z" fill="#4EAECC"/>
</svg>