<svg xmlns="http://www.w3.org/2000/svg" width="128" height="25" viewBox="0 0 128 25" fill="none">
<path fill-rule="evenodd" clip-rule="evenodd" d="M50.5082 19.241C45.778 22.7319 38.9203 24.5883 33.0146 24.5883C24.7385 24.5883 17.2854 21.5288 11.6452 16.4361C11.2028 16.0358 11.5973 15.4898 12.1296 15.7994C18.2143 19.3403 25.7399 21.473 33.5114 21.473C38.7542 21.473 44.5177 20.3846 49.8207 18.1351C50.6206 17.7965 51.2913 18.6623 50.5082 19.241Z" fill="#353535"/>
<path fill-rule="evenodd" clip-rule="evenodd" d="M52.477 16.993C51.8715 16.2185 48.4778 16.6261 46.9528 16.8088C46.4908 16.8646 46.4191 16.4607 46.8353 16.1685C49.543 14.2664 53.9802 14.8154 54.4958 15.4528C55.015 16.0945 54.3587 20.5433 51.8222 22.6659C51.4313 22.9922 51.06 22.8181 51.2333 22.3874C51.8048 20.961 53.0825 17.7689 52.477 16.993Z" fill="#353535"/>
<path fill-rule="evenodd" clip-rule="evenodd" d="M47.0601 2.73288V0.885196C47.0615 0.603837 47.2733 0.416748 47.5285 0.417473L55.8112 0.416748C56.0759 0.416748 56.2891 0.608913 56.2891 0.88302V2.46747C56.2862 2.73361 56.0621 3.08023 55.6655 3.63062L51.3747 9.75669C52.9672 9.71971 54.6517 9.95828 56.0991 10.7712C56.4254 10.9546 56.5132 11.2266 56.5385 11.4927V13.4644C56.5385 13.7363 56.2412 14.0503 55.928 13.8872C53.379 12.5514 49.9962 12.4057 47.1768 13.9031C46.8889 14.0568 46.588 13.7465 46.588 13.4745V11.6C46.588 11.3005 46.5938 10.7871 46.8962 10.3303L51.8664 3.19915L47.5387 3.19843C47.274 3.19843 47.0615 3.00989 47.0601 2.73288Z" fill="#353535"/>
<path fill-rule="evenodd" clip-rule="evenodd" d="M16.8474 14.2752H14.3275C14.0875 14.2599 13.896 14.0801 13.8765 13.8495L13.8786 0.916426C13.8786 0.658273 14.0962 0.451605 14.3652 0.451605L16.7118 0.450879C16.9569 0.463207 17.1541 0.648846 17.1694 0.885245V2.5734H17.2172C17.8285 0.940356 18.9808 0.178223 20.5334 0.178223C22.1091 0.178223 23.0975 0.940356 23.8031 2.5734C24.4144 0.940356 25.8023 0.178223 27.2838 0.178223C28.3425 0.178223 29.4948 0.614038 30.2003 1.59372C31.0002 2.68289 30.8363 4.26082 30.8363 5.64876L30.8334 13.8103C30.8334 14.0678 30.6166 14.2752 30.3475 14.2752H27.8313C27.5775 14.2592 27.3788 14.0591 27.3788 13.8111L27.3781 6.95476C27.3781 6.41089 27.4252 5.05051 27.307 4.53348C27.1192 3.66185 26.555 3.41675 25.8262 3.41675C25.2142 3.41675 24.579 3.82501 24.3201 4.47764C24.0612 5.13173 24.0851 6.21945 24.0851 6.95476V13.8103C24.0851 14.0678 23.8676 14.2752 23.5993 14.2752H21.0823C20.8292 14.2592 20.6298 14.0591 20.6298 13.8111L20.6269 6.95476C20.6269 5.51243 20.8626 3.39064 19.0751 3.39064C17.2636 3.39064 17.3347 5.45805 17.3347 6.95476L17.3333 13.8103C17.3333 14.0678 17.1157 14.2752 16.8474 14.2752Z" fill="#353535"/>
<path fill-rule="evenodd" clip-rule="evenodd" d="M63.442 2.8185C61.5841 2.8185 61.4666 5.34855 61.4666 6.9272C61.4666 8.50586 61.4434 11.8807 63.4195 11.8807C65.3716 11.8807 65.4659 9.15922 65.4659 7.49935C65.4659 6.4109 65.418 5.10417 65.0888 4.07011C64.8067 3.17165 64.2418 2.8185 63.442 2.8185ZM63.4195 0.178223C67.1591 0.178223 69.1815 3.39064 69.1815 7.47252C69.1815 11.4173 66.9473 14.5478 63.4195 14.5478C59.7495 14.5478 57.7502 11.3361 57.7502 7.33619C57.7502 3.30797 59.7727 0.178223 63.4195 0.178223Z" fill="#353535"/>
<path fill-rule="evenodd" clip-rule="evenodd" d="M74.0321 14.2752H71.5209C71.2693 14.2592 71.0692 14.0591 71.0692 13.8111L71.0648 0.873642C71.0866 0.636518 71.2954 0.451605 71.5492 0.451605L73.8864 0.450879C74.1068 0.462482 74.2881 0.611863 74.3345 0.81273V2.79094H74.3817C75.088 1.02157 76.0749 0.178223 77.8152 0.178223C78.9443 0.178223 80.0502 0.586483 80.7557 1.70249C81.4142 2.73656 81.4142 4.47764 81.4142 5.72998V13.8683C81.3866 14.0975 81.1807 14.2752 80.9312 14.2752H78.4055C78.172 14.2607 77.9842 14.0888 77.9567 13.8683V6.84671C77.9567 5.43122 78.122 3.36236 76.3809 3.36236C75.7696 3.36236 75.2047 3.77062 74.9226 4.39643C74.5695 5.18611 74.5223 5.97508 74.5223 6.84671V13.8103C74.518 14.0678 74.3004 14.2752 74.0321 14.2752Z" fill="#353535"/>
<path fill-rule="evenodd" clip-rule="evenodd" d="M42.9971 14.2432C42.8311 14.3926 42.591 14.4028 42.4025 14.302C41.5657 13.6065 41.4156 13.2853 40.958 12.6225C39.5751 14.0315 38.5955 14.4542 36.8036 14.4542C34.6825 14.4542 33.0321 13.1446 33.0321 10.5268C33.0321 8.48118 34.1409 7.09034 35.7195 6.4087C37.0864 5.80827 38.9957 5.6995 40.4577 5.53562V5.20857C40.4577 4.60742 40.5048 3.89967 40.1509 3.38119C39.8442 2.9171 39.2554 2.72638 38.7369 2.72638C37.7753 2.72638 36.9218 3.21876 36.7115 4.23905C36.6673 4.46602 36.502 4.69154 36.2743 4.70314L33.8312 4.43846C33.6253 4.39133 33.3961 4.22599 33.4549 3.91128C34.0096 0.989644 36.6187 0.0788544 38.9899 0.0541992H39.177C40.3909 0.0694274 41.9413 0.402272 42.8855 1.30799C44.1117 2.45372 43.9928 3.98089 43.9928 5.64511V9.57036C43.9928 10.7516 44.4837 11.2694 44.9442 11.9053C45.1059 12.1352 45.1414 12.4071 44.9362 12.5754C44.4213 13.0068 43.5069 13.8009 43.0044 14.249L42.9971 14.2432ZM40.4577 8.09975C40.4577 9.0816 40.4809 9.89957 39.9863 10.7727C39.5853 11.4811 38.9486 11.9177 38.2416 11.9177C37.2757 11.9177 36.7101 11.1816 36.7101 10.0903C36.7101 7.94384 38.6346 7.55371 40.4577 7.55371V8.09975Z" fill="#353535"/>
<path fill-rule="evenodd" clip-rule="evenodd" d="M9.96575 14.2432C9.79896 14.3926 9.55821 14.4028 9.3704 14.302C8.53285 13.6065 8.38274 13.2853 7.9259 12.6225C6.54231 14.0315 5.56336 14.4542 3.77151 14.4542C1.65044 14.4542 0 13.1446 0 10.5268C0 8.48118 1.10731 7.09034 2.68741 6.4087C4.05432 5.80827 5.96364 5.6995 7.42482 5.53562V5.20857C7.42482 4.60742 7.47268 3.89967 7.11881 3.38119C6.81207 2.9171 6.22252 2.72638 5.70476 2.72638C4.74321 2.72638 3.88826 3.21876 3.67942 4.23905C3.63591 4.46602 3.46985 4.69154 3.24142 4.70314L0.799116 4.43846C0.592448 4.39133 0.363301 4.22599 0.422763 3.91128C0.976053 0.989644 3.58587 0.0788544 5.95784 0.0541992H6.14493C7.35883 0.0694274 8.9092 0.402272 9.85335 1.30799C11.0789 2.45372 10.9607 3.98089 10.9607 5.64511V9.57036C10.9607 10.7516 11.4516 11.2694 11.9121 11.9053C12.0723 12.1352 12.1093 12.4071 11.9041 12.5754C11.3892 13.0068 10.4741 13.8009 9.97155 14.249L9.96575 14.2432ZM7.42482 8.09975C7.42482 9.0816 7.44875 9.89957 6.95347 10.7727C6.55319 11.4811 5.91651 11.9177 5.20876 11.9177C4.24286 11.9177 3.67724 11.1816 3.67724 10.0903C3.67724 7.94384 5.60252 7.55371 7.42482 7.55371V8.09975Z" fill="#353535"/>
<path fill-rule="evenodd" clip-rule="evenodd" d="M115.86 18.9146C115.86 18.5869 115.86 18.2924 115.86 17.9647C115.86 17.6942 115.992 17.5078 116.274 17.5245C116.801 17.5992 117.546 17.6739 118.074 17.5651C118.764 17.4215 119.26 16.9321 119.553 16.2613C119.965 15.3171 120.239 14.5557 120.411 14.0561L115.169 1.0701C115.081 0.849659 115.055 0.440674 115.495 0.440674H117.327C117.677 0.440674 117.819 0.66257 117.897 0.880115L121.698 11.4282L125.326 0.880115C125.4 0.66402 125.548 0.440674 125.895 0.440674H127.623C128.06 0.440674 128.036 0.848934 127.949 1.0701L122.748 14.4615C122.076 16.2439 121.179 19.0829 119.16 19.576C118.148 19.8406 116.871 19.7449 116.121 19.4309C115.932 19.3359 115.86 19.0821 115.86 18.9146Z" fill="#353535"/>
<path fill-rule="evenodd" clip-rule="evenodd" d="M113.415 13.484C113.415 13.7255 113.217 13.9235 112.974 13.9235H111.682C111.403 13.9235 111.212 13.7219 111.177 13.484L111.047 12.6044C110.453 13.1069 109.724 13.5486 108.934 13.856C107.414 14.4463 105.662 14.5442 104.177 13.632C103.103 12.9728 102.533 11.6842 102.533 10.355C102.533 9.32673 102.85 8.30717 103.552 7.56679C104.49 6.5552 105.849 6.05848 107.49 6.05848C108.481 6.05848 109.9 6.17522 110.931 6.51242V4.74233C110.931 2.9425 110.174 2.16369 108.176 2.16369C106.649 2.16369 105.48 2.39429 103.855 2.89972C103.594 2.90842 103.442 2.71045 103.442 2.46898V1.45957C103.442 1.21737 103.649 0.983144 103.873 0.912079C105.034 0.405924 106.678 0.0904828 108.427 0.0324707C110.706 0.0324707 113.415 0.546603 113.415 4.05198V13.484ZM110.931 10.8996V8.22885C110.064 7.99173 108.629 7.89311 108.074 7.89311C107.196 7.89311 106.235 8.1005 105.734 8.64074C105.359 9.03667 105.189 9.60519 105.189 10.1549C105.189 10.8655 105.435 11.5783 106.009 11.9307C106.676 12.384 107.711 12.3289 108.683 12.0526C109.618 11.7872 110.496 11.318 110.931 10.8996Z" fill="#353535"/>
<path fill-rule="evenodd" clip-rule="evenodd" d="M94.3617 2.20353C97.229 2.20353 98.01 4.45802 98.01 7.03956C98.0259 8.77992 97.7061 10.3317 96.8048 11.2201C96.1304 11.885 95.3769 12.0663 94.2428 12.0663C93.2334 12.0663 91.9056 11.5398 90.9136 10.8067V3.42541C91.9463 2.63209 93.2639 2.20353 94.3617 2.20353ZM90.4742 19.378H88.7433C88.5011 19.378 88.3031 19.18 88.3031 18.9386C88.3031 12.9271 88.3031 6.91484 88.3031 0.903335C88.3031 0.66186 88.5011 0.463893 88.7433 0.463893H90.0681C90.3466 0.463893 90.5373 0.665485 90.5728 0.903335L90.7121 1.84821C91.9528 0.746702 93.5503 0.0404053 95.0724 0.0404053C99.3355 0.0404053 100.737 3.55304 100.737 7.20562C100.737 11.1135 98.593 14.2534 94.9665 14.2534C93.4393 14.2534 92.0115 13.6899 90.9136 12.711V18.9386C90.9136 19.18 90.7157 19.378 90.4742 19.378Z" fill="#353535"/>
</svg>