<svg xmlns="http://www.w3.org/2000/svg" width="43" height="19" viewBox="0 0 43 19" fill="none">
<path fill-rule="evenodd" clip-rule="evenodd" d="M8.00761 2.90522C7.51537 3.49172 6.72778 3.95431 5.94019 3.88822C5.84174 3.09522 6.22734 2.25264 6.67856 1.73223C7.1708 1.12921 8.03223 0.699668 8.72957 0.666626C8.81161 1.49268 8.49165 2.30221 8.00761 2.90522ZM8.7213 4.04517C8.02745 4.00496 7.39434 4.25527 6.88296 4.45746C6.55388 4.58757 6.2752 4.69775 6.06319 4.69775C5.82527 4.69775 5.53509 4.58168 5.20929 4.45135C4.78238 4.28059 4.2943 4.08536 3.78247 4.09473C2.60929 4.11125 1.51815 4.78035 0.919253 5.84596C-0.311354 7.97716 0.599296 11.1327 1.78888 12.8674C2.37137 13.7265 3.06871 14.6682 3.98757 14.6351C4.39181 14.6198 4.68259 14.4955 4.98353 14.367C5.32999 14.2189 5.68991 14.0652 6.25188 14.0652C6.79438 14.0652 7.13855 14.2149 7.46894 14.3587C7.78308 14.4954 8.08476 14.6267 8.53261 14.6186C9.48428 14.6021 10.0832 13.7595 10.6657 12.9004C11.2943 11.9784 11.5705 11.0786 11.6124 10.942L11.6173 10.9262C11.6163 10.9252 11.6086 10.9216 11.5949 10.9153C11.3847 10.8184 9.77862 10.0781 9.76322 8.09281C9.74775 6.42648 11.0371 5.58222 11.2401 5.44932C11.2525 5.44123 11.2608 5.43577 11.2646 5.43293C10.4442 4.21038 9.16432 4.07821 8.7213 4.04517ZM15.3092 14.5277V1.64963H20.1086C22.5862 1.64963 24.3173 3.36781 24.3173 5.879C24.3173 8.39019 22.5534 10.1249 20.043 10.1249H17.2946V14.5277H15.3092ZM17.2944 3.33476H19.5834C21.3062 3.33476 22.2907 4.25994 22.2907 5.88726C22.2907 7.51457 21.3062 8.44801 19.5752 8.44801H17.2944V3.33476ZM30.8724 12.983C30.3473 13.9908 29.1906 14.6269 27.9435 14.6269C26.0976 14.6269 24.8096 13.52 24.8096 11.8513C24.8096 10.1992 26.0566 9.24929 28.3619 9.10886L30.8396 8.96017V8.24977C30.8396 7.20069 30.1586 6.63071 28.9444 6.63071C27.9435 6.63071 27.2134 7.15112 27.0657 7.94413H25.2772C25.3347 6.27551 26.8934 5.06122 29.0019 5.06122C31.2744 5.06122 32.7511 6.25899 32.7511 8.1176V14.5277H30.9134V12.983H30.8724ZM28.4767 13.0987C27.4183 13.0987 26.7456 12.5865 26.7456 11.8018C26.7456 10.9922 27.3937 10.5214 28.6325 10.4471L30.8394 10.3066V11.0335C30.8394 12.2396 29.8221 13.0987 28.4767 13.0987ZM38.8466 15.0316C38.0508 17.2868 37.1402 18.0302 35.204 18.0302C35.0564 18.0302 34.5641 18.0137 34.4493 17.9806V16.4359C34.5723 16.4525 34.8759 16.469 35.0318 16.469C35.9096 16.469 36.4018 16.0973 36.7054 15.1308L36.8859 14.5608L33.5222 5.18513H35.5978L37.936 12.7931H37.977L40.3152 5.18513H42.3334L38.8466 15.0316Z" fill="white"/>
</svg>