<svg xmlns="http://www.w3.org/2000/svg" width="15" height="14" viewBox="0 0 15 14" fill="none">
<path d="M7.57 11.4625L7.5 11.5325L7.423 11.4625C4.098 8.44551 1.9 6.45051 1.9 4.42751C1.9 3.02751 2.95 1.97751 4.35 1.97751C5.428 1.97751 6.478 2.67751 6.849 3.62951H8.151C8.522 2.67751 9.572 1.97751 10.65 1.97751C12.05 1.97751 13.1 3.02751 13.1 4.42751C13.1 6.45051 10.902 8.44551 7.57 11.4625ZM10.65 0.577515C9.432 0.577515 8.263 1.14451 7.5 2.03351C6.737 1.14451 5.568 0.577515 4.35 0.577515C2.194 0.577515 0.5 2.26451 0.5 4.42751C0.5 7.06651 2.88 9.22952 6.485 12.4985L7.5 13.4225L8.515 12.4985C12.12 9.22952 14.5 7.06651 14.5 4.42751C14.5 2.26451 12.806 0.577515 10.65 0.577515Z" fill="#353535"/>
</svg>