<svg xmlns="http://www.w3.org/2000/svg" width="19" height="22" viewBox="0 0 19 22" fill="none">
<path fill-rule="evenodd" clip-rule="evenodd" d="M5.43705 21.217L5.79858 18.8434L4.99322 18.824H1.14746L3.82013 1.30861C3.82845 1.25557 3.85537 1.20633 3.89468 1.17131C3.93418 1.13628 3.98453 1.11707 4.0372 1.11707H10.5217C12.6747 1.11707 14.1603 1.58 14.9358 2.49387C15.2995 2.92259 15.5311 3.37071 15.6432 3.86368C15.7608 4.38105 15.7627 4.99911 15.6481 5.75306L15.6397 5.8079V6.29105L16.0034 6.50401C16.3095 6.67193 16.5529 6.86407 16.7396 7.08403C17.0506 7.4507 17.2518 7.91664 17.3368 8.46885C17.4247 9.03686 17.3957 9.71296 17.2518 10.4783C17.0859 11.3586 16.8177 12.1253 16.4553 12.7526C16.1223 13.3306 15.6978 13.8102 15.1938 14.1816C14.7126 14.5347 14.1409 14.8027 13.4945 14.9742C12.8681 15.1427 12.154 15.2278 11.3707 15.2278H10.866C10.5053 15.2278 10.1548 15.3621 9.87961 15.6029C9.60367 15.8486 9.42126 16.1845 9.36529 16.5518L9.32715 16.7655L8.68832 20.9492L8.65946 21.1027C8.65172 21.1513 8.63855 21.1755 8.61919 21.192C8.60195 21.207 8.57717 21.217 8.55296 21.217H5.43705Z" fill="#28356A"/>
<path fill-rule="evenodd" clip-rule="evenodd" d="M16.348 5.86365C16.3288 5.99154 16.3066 6.12224 16.2818 6.25653C15.4267 10.7947 12.5009 12.3624 8.76435 12.3624H6.8618C6.4048 12.3624 6.01965 12.7053 5.94858 13.1712L4.69861 21.3662C4.65233 21.6722 4.88044 21.9478 5.17904 21.9478H8.55347C8.95296 21.9478 9.29241 21.6478 9.35535 21.2405L9.38846 21.0634L10.0238 16.8961L10.0647 16.6676C10.1268 16.2589 10.4671 15.9586 10.8665 15.9586H11.3712C14.6405 15.9586 17.1998 14.5868 17.9479 10.6167C18.2602 8.95831 18.0985 7.5735 17.2717 6.59959C17.0215 6.30597 16.7111 6.06219 16.348 5.86365Z" fill="#298FC2"/>
<path fill-rule="evenodd" clip-rule="evenodd" d="M15.4531 5.49509C15.3224 5.45566 15.1876 5.42003 15.0494 5.38781C14.9103 5.35639 14.768 5.32857 14.6214 5.30415C14.1084 5.21849 13.5463 5.17786 12.9443 5.17786H7.8617C7.73642 5.17786 7.61752 5.20708 7.51121 5.25992C7.27671 5.3764 7.10262 5.60577 7.06041 5.88657L5.9791 12.965L5.94812 13.1713C6.01919 12.7054 6.40434 12.3625 6.86134 12.3625H8.76389C12.5004 12.3625 15.4262 10.794 16.2813 6.25665C16.3069 6.12235 16.3284 5.99165 16.3475 5.86376C16.1312 5.74507 15.8969 5.6436 15.6446 5.55713C15.5823 5.53572 15.518 5.5151 15.4531 5.49509Z" fill="#22284F"/>
<path fill-rule="evenodd" clip-rule="evenodd" d="M7.06067 5.8866C7.10288 5.60579 7.27697 5.37643 7.51147 5.26074C7.61855 5.2077 7.73668 5.17848 7.86196 5.17848H12.9445C13.5466 5.17848 14.1087 5.21931 14.6217 5.30498C14.7683 5.32919 14.9106 5.35721 15.0496 5.38864C15.1879 5.42066 15.3227 5.45649 15.4534 5.49571C15.5182 5.51573 15.5825 5.53654 15.6455 5.55716C15.8978 5.64362 16.1323 5.7459 16.3486 5.86378C16.603 4.18676 16.3464 3.04492 15.4692 2.01097C14.502 0.872532 12.7565 0.385376 10.5228 0.385376H4.03809C3.58186 0.385376 3.19264 0.728227 3.12216 1.19497L0.421219 18.8905C0.367967 19.2406 0.629192 19.5564 0.970779 19.5564H4.97416L7.06067 5.8866Z" fill="#28356A"/>
</svg>